<?xml version="1.0" encoding="UTF-8"?>
<svg xmlns="http://www.w3.org/2000/svg" version="1.1" viewBox="0 0 41 16">
  <defs>
    <style>
      .cls-1 {
        fill: #003256;
      }
    </style>
  </defs>
  <!-- Generator: Adobe Illustrator 28.7.1, SVG Export Plug-In . SVG Version: 1.2.0 Build 142)  -->
  <g>
    <g id="Layer_1">
      <path class="cls-1" d="M34.9,3.9c1.3,0,2.5.6,3.3,1.7V.8c-1.1-.5-2.2-.8-3.5-.8-2,0-4.1.9-5.5,2.4-1.4,1.5-2.1,3.5-2.1,5.5s.7,4.2,2.3,5.7c1.5,1.4,3.4,2.2,5.5,2.2s2.1-.3,3.3-.7v-4.7c-.8,1-2,1.6-3.3,1.6-2.4,0-3.9-1.7-3.9-4.1s1.6-4.2,3.9-4.2M22.8,15.6h3.8V.5h-3.8v15.1ZM14.1,12.2h-.9V3.8h.9c2.4,0,4.2,1.5,4.2,4.2s-1.9,4.2-4.2,4.2M14.9.5h-5.4v15.1h5.4c4,0,7.4-3.3,7.4-7.5S18.9.5,14.9.5M.4,15.5h3.8v-5.9h4.2v-3.3h-4.2v-2.5h4.6V.5H.4v15.1H.4Z"/>
    </g>
  </g>
</svg>